<svg width="36" height="40" viewBox="0 0 36 40" fill="none" xmlns="http://www.w3.org/2000/svg">
<path d="M33.75 14.0312C35.0578 14.7187 36 16.5703 36 18.75C36 20.9297 35.0578 22.7812 33.75 23.4687V35C33.75 36.0078 33.2016 36.9218 32.3578 37.3125C31.5211 37.6953 30.5508 37.4843 29.9109 36.7656L26.8383 33.289C23.4633 29.539 18.8859 27.5 14.1117 27.5H13.5V37.5C13.5 38.8828 12.4945 40 11.25 40H6.75C5.50758 40 4.5 38.8828 4.5 37.5V27.5C2.01445 27.5 0 25.2578 0 22.5V15C0 12.2422 2.01445 9.99999 4.5 9.99999H14.1117C18.8859 9.99999 23.4633 7.89061 26.8383 4.14218L29.9109 0.732256C30.5508 0.0172957 31.5211 -0.196571 32.3578 0.190382C33.2016 0.577334 33.75 1.48905 33.75 2.49999V14.0312ZM14.1117 15H13.5V22.5H14.1117C19.7227 22.5 25.1156 24.8281 29.25 29.0078V8.49217C25.1156 12.6719 19.7227 15 14.1117 15Z" />
</svg>
