<svg width="40" height="36" viewBox="0 0 40 36" fill="none" xmlns="http://www.w3.org/2000/svg">
<path d="M0 4.5C0 2.01445 1.98958 0 4.44444 0H15.5556V9C15.5556 10.2445 16.5486 11.25 17.7778 11.25H26.6667V13.9641C21.5347 15.4336 17.7778 20.2078 17.7778 25.875C17.7778 30.0305 19.7986 33.7008 22.8958 35.9508C22.6806 35.9789 22.4514 36 22.2222 36H4.44444C1.98958 36 0 33.982 0 31.5V4.5ZM17.7778 9V0L26.6667 9H17.7778ZM20 25.875C20 20.2852 24.4792 15.75 30 15.75C35.5208 15.75 40 20.2852 40 25.875C40 31.4648 35.5208 36 30 36C24.4792 36 20 31.4648 20 25.875ZM34.1181 23.2945C34.5556 22.8586 34.5556 22.1414 34.1181 21.7055C33.6875 21.2625 32.9792 21.2625 32.5486 21.7055L30 24.2859L27.4514 21.7055C27.0208 21.2625 26.3125 21.2625 25.8819 21.7055C25.4444 22.1414 25.4444 22.8586 25.8819 23.2945L28.4306 25.875L25.8819 28.4555C25.4444 28.8914 25.4444 29.6086 25.8819 30.0445C26.3125 30.4875 27.0208 30.4875 27.4514 30.0445L30 27.4641L32.5486 30.0445C32.9792 30.4875 33.6875 30.4875 34.1181 30.0445C34.5556 29.6086 34.5556 28.8914 34.1181 28.4555L31.5694 25.875L34.1181 23.2945Z" />
</svg>
