<svg width="30" height="36" viewBox="0 0 30 36" fill="none" xmlns="http://www.w3.org/2000/svg">
<path d="M20 0V9H30L20 0ZM17.5 9V0H3.75C1.67891 0 0 1.51102 0 3.375V32.625C0 34.4883 1.67891 36 3.75 36H26.25C28.3211 36 30 34.489 30 32.625V11.25H20.0703C18.6172 11.25 17.5 10.2445 17.5 9ZM21.25 29.25H8.75C8.0625 29.25 7.5 28.7437 7.5 28.125C7.5 27.5063 8.0625 27 8.75 27H21.25C21.9403 27 22.5 27.5036 22.5 28.125C22.5 28.7437 21.9375 29.25 21.25 29.25ZM21.25 24.75H8.75C8.0625 24.75 7.5 24.2437 7.5 23.625C7.5 23.0063 8.0625 22.5 8.75 22.5H21.25C21.9403 22.5 22.5 23.0036 22.5 23.625C22.5 24.2437 21.9375 24.75 21.25 24.75ZM22.5 19.125C22.5 19.7437 21.9375 20.25 21.25 20.25H8.75C8.0625 20.25 7.5 19.7437 7.5 19.125C7.5 18.5063 8.0625 18 8.75 18H21.25C21.9375 18 22.5 18.5063 22.5 19.125Z" />
</svg>
