<svg width="40" height="36" viewBox="0 0 40 36" fill="none" xmlns="http://www.w3.org/2000/svg">
<path d="M0 4.5C0 2.01445 1.98958 0 4.44444 0H15.5556V9C15.5556 10.2445 16.5486 11.25 17.7778 11.25H26.6667V13.9641C21.5347 15.4336 17.7778 20.2078 17.7778 25.875C17.7778 30.0305 19.7986 33.7008 22.8958 35.9508C22.6806 35.9789 22.4514 36 22.2222 36H4.44444C1.98958 36 0 33.982 0 31.5V4.5ZM17.7778 9V0L26.6667 9H17.7778ZM40 25.875C40 31.4648 35.5208 36 30 36C24.4792 36 20 31.4648 20 25.875C20 20.2852 24.4792 15.75 30 15.75C35.5208 15.75 40 20.2852 40 25.875ZM33.1042 22.8305L28.8889 27.0984L26.8958 25.0805C26.4653 24.6375 25.7569 24.6375 25.3264 25.0805C24.8889 25.5164 24.8889 26.2336 25.3264 26.6695L28.1042 29.482C28.5347 29.925 29.2431 29.925 29.6736 29.482L34.6736 24.4195C35.1111 23.9836 35.1111 23.2664 34.6736 22.8305C34.2431 22.3875 33.5347 22.3875 33.1042 22.8305Z" />
</svg>
