<svg width="45" height="36" viewBox="0 0 45 36" fill="none" xmlns="http://www.w3.org/2000/svg">
<path d="M7.875 0C6.01102 0 4.5 1.51102 4.5 3.375V6.75H1.125C0.503648 6.75 0 7.25625 0 7.875C0 8.49375 0.503648 9 1.125 9H19.125C19.7437 9 20.25 9.50625 20.25 10.125C20.25 10.7437 19.7437 11.25 19.125 11.25H3.375C2.75344 11.25 2.25 11.7563 2.25 12.375C2.25 12.9937 2.75344 13.5 3.375 13.5H16.875C17.4937 13.5 18 14.0063 18 14.625C18 15.2437 17.4937 15.75 16.875 15.75H1.125C0.503648 15.75 0 16.2563 0 16.875C0 17.4937 0.503648 18 1.125 18H14.625C15.2437 18 15.75 18.5063 15.75 19.125C15.75 19.7437 15.2437 20.25 14.625 20.25H4.5V29.25C4.5 32.9766 7.46016 36 11.25 36C14.9766 36 18 32.9766 18 29.25H27C27 32.9766 29.9602 36 33.75 36C37.4766 36 40.5 32.9766 40.5 29.25H42.75C43.9945 29.25 45 28.2445 45 27C45 25.7555 43.9945 24.75 42.75 24.75V16.6852C42.75 15.4898 42.2789 14.3438 41.4352 13.5L36 8.06484C35.093 7.22109 34.0102 6.75 32.8148 6.75H29.25V3.375C29.25 1.51102 27.7383 0 25.875 0H7.875ZM38.25 16.6852V18H29.25V11.25H32.8148L38.25 16.6852ZM11.25 32.625C9.38672 32.625 7.875 31.1133 7.875 29.25C7.875 27.3867 9.38672 25.875 11.25 25.875C13.1133 25.875 14.625 27.3867 14.625 29.25C14.625 31.1133 13.1133 32.625 11.25 32.625ZM37.125 29.25C37.125 31.1133 35.6133 32.625 33.75 32.625C31.8867 32.625 30.375 31.1133 30.375 29.25C30.375 27.3867 31.8867 25.875 33.75 25.875C35.6133 25.875 37.125 27.3867 37.125 29.25Z" />
</svg>
